<mxfile host="app.diagrams.net" modified="2023-04-10T18:52:58.673Z" agent="Mozilla/5.0 (Windows NT 10.0; Win64; x64) AppleWebKit/537.36 (KHTML, like Gecko) Chrome/111.0.0.0 Safari/537.36" etag="c8QPYmdOk8CsfadjIAHA" version="21.1.5" type="device">
  <diagram name="Trang-1" id="zSXktPgjRPdUAzlL62q4">
    <mxGraphModel dx="2327" dy="819" grid="1" gridSize="10" guides="1" tooltips="1" connect="1" arrows="1" fold="1" page="1" pageScale="1" pageWidth="827" pageHeight="1169" math="0" shadow="0">
      <root>
        <mxCell id="0" />
        <mxCell id="1" parent="0" />
        <mxCell id="M0cc5koYl3sNDmJno_tP-19" style="edgeStyle=orthogonalEdgeStyle;rounded=0;orthogonalLoop=1;jettySize=auto;html=1;exitX=0.5;exitY=1;exitDx=0;exitDy=0;entryX=0.5;entryY=0;entryDx=0;entryDy=0;" edge="1" parent="1" source="M0cc5koYl3sNDmJno_tP-1" target="M0cc5koYl3sNDmJno_tP-18">
          <mxGeometry relative="1" as="geometry" />
        </mxCell>
        <mxCell id="M0cc5koYl3sNDmJno_tP-1" value="Start" style="ellipse;whiteSpace=wrap;html=1;" vertex="1" parent="1">
          <mxGeometry x="343.94" width="120" height="80" as="geometry" />
        </mxCell>
        <mxCell id="M0cc5koYl3sNDmJno_tP-11" style="edgeStyle=orthogonalEdgeStyle;rounded=0;orthogonalLoop=1;jettySize=auto;html=1;exitX=0.5;exitY=1;exitDx=0;exitDy=0;entryX=0.5;entryY=0;entryDx=0;entryDy=0;" edge="1" parent="1" source="M0cc5koYl3sNDmJno_tP-2" target="M0cc5koYl3sNDmJno_tP-9">
          <mxGeometry relative="1" as="geometry" />
        </mxCell>
        <mxCell id="M0cc5koYl3sNDmJno_tP-2" value="Log in" style="rhombus;whiteSpace=wrap;html=1;" vertex="1" parent="1">
          <mxGeometry x="149.94" y="200" width="80" height="80" as="geometry" />
        </mxCell>
        <mxCell id="M0cc5koYl3sNDmJno_tP-12" style="edgeStyle=orthogonalEdgeStyle;rounded=0;orthogonalLoop=1;jettySize=auto;html=1;exitX=0.5;exitY=1;exitDx=0;exitDy=0;entryX=0.5;entryY=0;entryDx=0;entryDy=0;" edge="1" parent="1" source="M0cc5koYl3sNDmJno_tP-3" target="M0cc5koYl3sNDmJno_tP-10">
          <mxGeometry relative="1" as="geometry" />
        </mxCell>
        <mxCell id="M0cc5koYl3sNDmJno_tP-3" value="Sign up" style="rhombus;whiteSpace=wrap;html=1;" vertex="1" parent="1">
          <mxGeometry x="363.94" y="200" width="80" height="80" as="geometry" />
        </mxCell>
        <mxCell id="M0cc5koYl3sNDmJno_tP-30" style="edgeStyle=orthogonalEdgeStyle;rounded=0;orthogonalLoop=1;jettySize=auto;html=1;exitX=0.5;exitY=1;exitDx=0;exitDy=0;entryX=1;entryY=0.5;entryDx=0;entryDy=0;" edge="1" parent="1" source="M0cc5koYl3sNDmJno_tP-4" target="M0cc5koYl3sNDmJno_tP-27">
          <mxGeometry relative="1" as="geometry" />
        </mxCell>
        <mxCell id="M0cc5koYl3sNDmJno_tP-4" value="Play as Guest" style="rhombus;whiteSpace=wrap;html=1;" vertex="1" parent="1">
          <mxGeometry x="569.94" y="200" width="100" height="80" as="geometry" />
        </mxCell>
        <mxCell id="M0cc5koYl3sNDmJno_tP-16" style="edgeStyle=orthogonalEdgeStyle;rounded=0;orthogonalLoop=1;jettySize=auto;html=1;exitX=0.5;exitY=1;exitDx=0;exitDy=0;entryX=0.5;entryY=0;entryDx=0;entryDy=0;" edge="1" parent="1" source="M0cc5koYl3sNDmJno_tP-9" target="M0cc5koYl3sNDmJno_tP-13">
          <mxGeometry relative="1" as="geometry" />
        </mxCell>
        <mxCell id="M0cc5koYl3sNDmJno_tP-9" value="Username&lt;br&gt;Password" style="shape=parallelogram;perimeter=parallelogramPerimeter;whiteSpace=wrap;html=1;fixedSize=1;" vertex="1" parent="1">
          <mxGeometry x="129.94" y="300" width="120" height="60" as="geometry" />
        </mxCell>
        <mxCell id="M0cc5koYl3sNDmJno_tP-24" style="edgeStyle=orthogonalEdgeStyle;rounded=0;orthogonalLoop=1;jettySize=auto;html=1;exitX=0;exitY=0.5;exitDx=0;exitDy=0;entryX=0;entryY=0.5;entryDx=0;entryDy=0;" edge="1" parent="1" source="M0cc5koYl3sNDmJno_tP-10" target="M0cc5koYl3sNDmJno_tP-18">
          <mxGeometry relative="1" as="geometry">
            <Array as="points">
              <mxPoint x="324" y="330" />
              <mxPoint x="324" y="130" />
            </Array>
          </mxGeometry>
        </mxCell>
        <mxCell id="M0cc5koYl3sNDmJno_tP-10" value="Username&lt;br&gt;Password" style="shape=parallelogram;perimeter=parallelogramPerimeter;whiteSpace=wrap;html=1;fixedSize=1;" vertex="1" parent="1">
          <mxGeometry x="343.94" y="300" width="120" height="60" as="geometry" />
        </mxCell>
        <mxCell id="M0cc5koYl3sNDmJno_tP-25" style="edgeStyle=orthogonalEdgeStyle;rounded=0;orthogonalLoop=1;jettySize=auto;html=1;exitX=0;exitY=0.5;exitDx=0;exitDy=0;entryX=0;entryY=0.5;entryDx=0;entryDy=0;" edge="1" parent="1" source="M0cc5koYl3sNDmJno_tP-13" target="M0cc5koYl3sNDmJno_tP-18">
          <mxGeometry relative="1" as="geometry" />
        </mxCell>
        <mxCell id="M0cc5koYl3sNDmJno_tP-28" style="edgeStyle=orthogonalEdgeStyle;rounded=0;orthogonalLoop=1;jettySize=auto;html=1;exitX=1;exitY=0.5;exitDx=0;exitDy=0;entryX=0;entryY=0.5;entryDx=0;entryDy=0;" edge="1" parent="1" source="M0cc5koYl3sNDmJno_tP-13" target="M0cc5koYl3sNDmJno_tP-27">
          <mxGeometry relative="1" as="geometry" />
        </mxCell>
        <mxCell id="M0cc5koYl3sNDmJno_tP-13" value="Check username and password" style="rhombus;whiteSpace=wrap;html=1;" vertex="1" parent="1">
          <mxGeometry x="89.94" y="380" width="200" height="80" as="geometry" />
        </mxCell>
        <mxCell id="M0cc5koYl3sNDmJno_tP-20" style="edgeStyle=orthogonalEdgeStyle;rounded=0;orthogonalLoop=1;jettySize=auto;html=1;exitX=0.5;exitY=1;exitDx=0;exitDy=0;entryX=0.5;entryY=0;entryDx=0;entryDy=0;" edge="1" parent="1" source="M0cc5koYl3sNDmJno_tP-18" target="M0cc5koYl3sNDmJno_tP-3">
          <mxGeometry relative="1" as="geometry" />
        </mxCell>
        <mxCell id="M0cc5koYl3sNDmJno_tP-21" style="edgeStyle=orthogonalEdgeStyle;rounded=0;orthogonalLoop=1;jettySize=auto;html=1;exitX=0.5;exitY=1;exitDx=0;exitDy=0;entryX=0.5;entryY=0;entryDx=0;entryDy=0;" edge="1" parent="1" source="M0cc5koYl3sNDmJno_tP-18" target="M0cc5koYl3sNDmJno_tP-2">
          <mxGeometry relative="1" as="geometry" />
        </mxCell>
        <mxCell id="M0cc5koYl3sNDmJno_tP-23" style="edgeStyle=orthogonalEdgeStyle;rounded=0;orthogonalLoop=1;jettySize=auto;html=1;exitX=0.5;exitY=1;exitDx=0;exitDy=0;entryX=0.5;entryY=0;entryDx=0;entryDy=0;" edge="1" parent="1" source="M0cc5koYl3sNDmJno_tP-18" target="M0cc5koYl3sNDmJno_tP-4">
          <mxGeometry relative="1" as="geometry" />
        </mxCell>
        <mxCell id="M0cc5koYl3sNDmJno_tP-18" value="Join screen" style="rounded=1;whiteSpace=wrap;html=1;" vertex="1" parent="1">
          <mxGeometry x="343.94" y="100" width="120" height="60" as="geometry" />
        </mxCell>
        <mxCell id="M0cc5koYl3sNDmJno_tP-26" value="False" style="text;html=1;strokeColor=none;fillColor=none;align=center;verticalAlign=middle;whiteSpace=wrap;rounded=0;" vertex="1" parent="1">
          <mxGeometry x="10" y="380" width="60" height="30" as="geometry" />
        </mxCell>
        <mxCell id="M0cc5koYl3sNDmJno_tP-34" style="edgeStyle=orthogonalEdgeStyle;rounded=0;orthogonalLoop=1;jettySize=auto;html=1;exitX=0.5;exitY=1;exitDx=0;exitDy=0;entryX=0.5;entryY=0;entryDx=0;entryDy=0;" edge="1" parent="1" source="M0cc5koYl3sNDmJno_tP-27" target="M0cc5koYl3sNDmJno_tP-32">
          <mxGeometry relative="1" as="geometry" />
        </mxCell>
        <mxCell id="M0cc5koYl3sNDmJno_tP-35" style="edgeStyle=orthogonalEdgeStyle;rounded=0;orthogonalLoop=1;jettySize=auto;html=1;exitX=0.5;exitY=1;exitDx=0;exitDy=0;entryX=0.5;entryY=0;entryDx=0;entryDy=0;" edge="1" parent="1" source="M0cc5koYl3sNDmJno_tP-27" target="M0cc5koYl3sNDmJno_tP-31">
          <mxGeometry relative="1" as="geometry" />
        </mxCell>
        <mxCell id="M0cc5koYl3sNDmJno_tP-36" style="edgeStyle=orthogonalEdgeStyle;rounded=0;orthogonalLoop=1;jettySize=auto;html=1;exitX=0.5;exitY=1;exitDx=0;exitDy=0;entryX=0.5;entryY=0;entryDx=0;entryDy=0;" edge="1" parent="1" source="M0cc5koYl3sNDmJno_tP-27" target="M0cc5koYl3sNDmJno_tP-33">
          <mxGeometry relative="1" as="geometry" />
        </mxCell>
        <mxCell id="M0cc5koYl3sNDmJno_tP-27" value="Main menu" style="rounded=1;whiteSpace=wrap;html=1;" vertex="1" parent="1">
          <mxGeometry x="343.94" y="390" width="120" height="60" as="geometry" />
        </mxCell>
        <mxCell id="M0cc5koYl3sNDmJno_tP-29" value="True" style="text;html=1;strokeColor=none;fillColor=none;align=center;verticalAlign=middle;whiteSpace=wrap;rounded=0;" vertex="1" parent="1">
          <mxGeometry x="283.94" y="390" width="60" height="30" as="geometry" />
        </mxCell>
        <mxCell id="M0cc5koYl3sNDmJno_tP-53" style="edgeStyle=orthogonalEdgeStyle;rounded=0;orthogonalLoop=1;jettySize=auto;html=1;exitX=0.5;exitY=1;exitDx=0;exitDy=0;entryX=0.5;entryY=0;entryDx=0;entryDy=0;" edge="1" parent="1" source="M0cc5koYl3sNDmJno_tP-31" target="M0cc5koYl3sNDmJno_tP-39">
          <mxGeometry relative="1" as="geometry" />
        </mxCell>
        <mxCell id="M0cc5koYl3sNDmJno_tP-31" value="Leaderboard" style="rhombus;whiteSpace=wrap;html=1;" vertex="1" parent="1">
          <mxGeometry x="-60" y="490" width="99.94" height="80" as="geometry" />
        </mxCell>
        <mxCell id="M0cc5koYl3sNDmJno_tP-67" style="edgeStyle=orthogonalEdgeStyle;rounded=0;orthogonalLoop=1;jettySize=auto;html=1;exitX=0.5;exitY=1;exitDx=0;exitDy=0;entryX=0.5;entryY=0;entryDx=0;entryDy=0;" edge="1" parent="1" source="M0cc5koYl3sNDmJno_tP-32" target="M0cc5koYl3sNDmJno_tP-62">
          <mxGeometry relative="1" as="geometry" />
        </mxCell>
        <mxCell id="M0cc5koYl3sNDmJno_tP-32" value="Start" style="rhombus;whiteSpace=wrap;html=1;" vertex="1" parent="1">
          <mxGeometry x="355.91" y="490" width="96.06" height="80" as="geometry" />
        </mxCell>
        <mxCell id="M0cc5koYl3sNDmJno_tP-38" style="edgeStyle=orthogonalEdgeStyle;rounded=0;orthogonalLoop=1;jettySize=auto;html=1;exitX=1;exitY=0.5;exitDx=0;exitDy=0;entryX=0;entryY=0.5;entryDx=0;entryDy=0;" edge="1" parent="1" source="M0cc5koYl3sNDmJno_tP-33" target="M0cc5koYl3sNDmJno_tP-37">
          <mxGeometry relative="1" as="geometry" />
        </mxCell>
        <mxCell id="M0cc5koYl3sNDmJno_tP-33" value="Exit" style="rhombus;whiteSpace=wrap;html=1;" vertex="1" parent="1">
          <mxGeometry x="579.94" y="490" width="80" height="80" as="geometry" />
        </mxCell>
        <mxCell id="M0cc5koYl3sNDmJno_tP-37" value="Exit" style="ellipse;whiteSpace=wrap;html=1;" vertex="1" parent="1">
          <mxGeometry x="700" y="490" width="120" height="80" as="geometry" />
        </mxCell>
        <mxCell id="M0cc5koYl3sNDmJno_tP-54" style="edgeStyle=orthogonalEdgeStyle;rounded=0;orthogonalLoop=1;jettySize=auto;html=1;exitX=0.5;exitY=1;exitDx=0;exitDy=0;entryX=0.5;entryY=0;entryDx=0;entryDy=0;" edge="1" parent="1" source="M0cc5koYl3sNDmJno_tP-39" target="M0cc5koYl3sNDmJno_tP-45">
          <mxGeometry relative="1" as="geometry" />
        </mxCell>
        <mxCell id="M0cc5koYl3sNDmJno_tP-55" style="edgeStyle=orthogonalEdgeStyle;rounded=0;orthogonalLoop=1;jettySize=auto;html=1;exitX=0.5;exitY=1;exitDx=0;exitDy=0;entryX=0.5;entryY=0;entryDx=0;entryDy=0;" edge="1" parent="1" source="M0cc5koYl3sNDmJno_tP-39" target="M0cc5koYl3sNDmJno_tP-46">
          <mxGeometry relative="1" as="geometry" />
        </mxCell>
        <mxCell id="M0cc5koYl3sNDmJno_tP-56" style="edgeStyle=orthogonalEdgeStyle;rounded=0;orthogonalLoop=1;jettySize=auto;html=1;exitX=0.5;exitY=1;exitDx=0;exitDy=0;entryX=0.5;entryY=0;entryDx=0;entryDy=0;" edge="1" parent="1" source="M0cc5koYl3sNDmJno_tP-39" target="M0cc5koYl3sNDmJno_tP-47">
          <mxGeometry relative="1" as="geometry" />
        </mxCell>
        <mxCell id="M0cc5koYl3sNDmJno_tP-57" style="edgeStyle=orthogonalEdgeStyle;rounded=0;orthogonalLoop=1;jettySize=auto;html=1;exitX=0.5;exitY=1;exitDx=0;exitDy=0;" edge="1" parent="1" source="M0cc5koYl3sNDmJno_tP-39" target="M0cc5koYl3sNDmJno_tP-48">
          <mxGeometry relative="1" as="geometry" />
        </mxCell>
        <mxCell id="M0cc5koYl3sNDmJno_tP-69" style="edgeStyle=orthogonalEdgeStyle;rounded=0;orthogonalLoop=1;jettySize=auto;html=1;exitX=1;exitY=0.5;exitDx=0;exitDy=0;entryX=0;entryY=0.5;entryDx=0;entryDy=0;" edge="1" parent="1" source="M0cc5koYl3sNDmJno_tP-39" target="M0cc5koYl3sNDmJno_tP-68">
          <mxGeometry relative="1" as="geometry" />
        </mxCell>
        <mxCell id="M0cc5koYl3sNDmJno_tP-39" value="Select&lt;br&gt;difficulty" style="rhombus;whiteSpace=wrap;html=1;" vertex="1" parent="1">
          <mxGeometry x="-50.03000000000003" y="620" width="80" height="80" as="geometry" />
        </mxCell>
        <mxCell id="M0cc5koYl3sNDmJno_tP-76" style="edgeStyle=orthogonalEdgeStyle;rounded=0;orthogonalLoop=1;jettySize=auto;html=1;exitX=0.5;exitY=1;exitDx=0;exitDy=0;entryX=0.5;entryY=0;entryDx=0;entryDy=0;" edge="1" parent="1" source="M0cc5koYl3sNDmJno_tP-45" target="M0cc5koYl3sNDmJno_tP-72">
          <mxGeometry relative="1" as="geometry" />
        </mxCell>
        <mxCell id="M0cc5koYl3sNDmJno_tP-45" value="Easy" style="rhombus;whiteSpace=wrap;html=1;" vertex="1" parent="1">
          <mxGeometry x="-310" y="750" width="80" height="80" as="geometry" />
        </mxCell>
        <mxCell id="M0cc5koYl3sNDmJno_tP-77" style="edgeStyle=orthogonalEdgeStyle;rounded=0;orthogonalLoop=1;jettySize=auto;html=1;exitX=0.5;exitY=1;exitDx=0;exitDy=0;entryX=0.5;entryY=0;entryDx=0;entryDy=0;" edge="1" parent="1" source="M0cc5koYl3sNDmJno_tP-46" target="M0cc5koYl3sNDmJno_tP-73">
          <mxGeometry relative="1" as="geometry" />
        </mxCell>
        <mxCell id="M0cc5koYl3sNDmJno_tP-46" value="Medium" style="rhombus;whiteSpace=wrap;html=1;" vertex="1" parent="1">
          <mxGeometry x="-195" y="750" width="80" height="80" as="geometry" />
        </mxCell>
        <mxCell id="M0cc5koYl3sNDmJno_tP-78" style="edgeStyle=orthogonalEdgeStyle;rounded=0;orthogonalLoop=1;jettySize=auto;html=1;exitX=0.5;exitY=1;exitDx=0;exitDy=0;entryX=0.5;entryY=0;entryDx=0;entryDy=0;" edge="1" parent="1" source="M0cc5koYl3sNDmJno_tP-47" target="M0cc5koYl3sNDmJno_tP-74">
          <mxGeometry relative="1" as="geometry" />
        </mxCell>
        <mxCell id="M0cc5koYl3sNDmJno_tP-47" value="Hard" style="rhombus;whiteSpace=wrap;html=1;" vertex="1" parent="1">
          <mxGeometry x="-70" y="750" width="80" height="80" as="geometry" />
        </mxCell>
        <mxCell id="M0cc5koYl3sNDmJno_tP-79" style="edgeStyle=orthogonalEdgeStyle;rounded=0;orthogonalLoop=1;jettySize=auto;html=1;exitX=0.5;exitY=1;exitDx=0;exitDy=0;entryX=0.5;entryY=0;entryDx=0;entryDy=0;" edge="1" parent="1" source="M0cc5koYl3sNDmJno_tP-48" target="M0cc5koYl3sNDmJno_tP-75">
          <mxGeometry relative="1" as="geometry" />
        </mxCell>
        <mxCell id="M0cc5koYl3sNDmJno_tP-48" value="Asian" style="rhombus;whiteSpace=wrap;html=1;" vertex="1" parent="1">
          <mxGeometry x="49.94" y="750" width="80" height="80" as="geometry" />
        </mxCell>
        <mxCell id="M0cc5koYl3sNDmJno_tP-58" style="edgeStyle=orthogonalEdgeStyle;rounded=0;orthogonalLoop=1;jettySize=auto;html=1;exitX=0.5;exitY=1;exitDx=0;exitDy=0;entryX=0.5;entryY=0;entryDx=0;entryDy=0;" edge="1" parent="1" source="M0cc5koYl3sNDmJno_tP-62" target="M0cc5koYl3sNDmJno_tP-63">
          <mxGeometry relative="1" as="geometry" />
        </mxCell>
        <mxCell id="M0cc5koYl3sNDmJno_tP-59" style="edgeStyle=orthogonalEdgeStyle;rounded=0;orthogonalLoop=1;jettySize=auto;html=1;exitX=0.5;exitY=1;exitDx=0;exitDy=0;entryX=0.5;entryY=0;entryDx=0;entryDy=0;" edge="1" parent="1" source="M0cc5koYl3sNDmJno_tP-62" target="M0cc5koYl3sNDmJno_tP-64">
          <mxGeometry relative="1" as="geometry" />
        </mxCell>
        <mxCell id="M0cc5koYl3sNDmJno_tP-60" style="edgeStyle=orthogonalEdgeStyle;rounded=0;orthogonalLoop=1;jettySize=auto;html=1;exitX=0.5;exitY=1;exitDx=0;exitDy=0;entryX=0.5;entryY=0;entryDx=0;entryDy=0;" edge="1" parent="1" source="M0cc5koYl3sNDmJno_tP-62" target="M0cc5koYl3sNDmJno_tP-65">
          <mxGeometry relative="1" as="geometry" />
        </mxCell>
        <mxCell id="M0cc5koYl3sNDmJno_tP-61" style="edgeStyle=orthogonalEdgeStyle;rounded=0;orthogonalLoop=1;jettySize=auto;html=1;exitX=0.5;exitY=1;exitDx=0;exitDy=0;" edge="1" parent="1" source="M0cc5koYl3sNDmJno_tP-62" target="M0cc5koYl3sNDmJno_tP-66">
          <mxGeometry relative="1" as="geometry" />
        </mxCell>
        <mxCell id="M0cc5koYl3sNDmJno_tP-70" style="edgeStyle=orthogonalEdgeStyle;rounded=0;orthogonalLoop=1;jettySize=auto;html=1;exitX=0;exitY=0.5;exitDx=0;exitDy=0;entryX=1;entryY=0.5;entryDx=0;entryDy=0;" edge="1" parent="1" source="M0cc5koYl3sNDmJno_tP-62" target="M0cc5koYl3sNDmJno_tP-68">
          <mxGeometry relative="1" as="geometry" />
        </mxCell>
        <mxCell id="M0cc5koYl3sNDmJno_tP-62" value="Select&lt;br&gt;difficulty" style="rhombus;whiteSpace=wrap;html=1;" vertex="1" parent="1">
          <mxGeometry x="363.94" y="620" width="80" height="80" as="geometry" />
        </mxCell>
        <mxCell id="M0cc5koYl3sNDmJno_tP-84" style="edgeStyle=orthogonalEdgeStyle;rounded=0;orthogonalLoop=1;jettySize=auto;html=1;exitX=0.5;exitY=1;exitDx=0;exitDy=0;entryX=0.5;entryY=0;entryDx=0;entryDy=0;" edge="1" parent="1" source="M0cc5koYl3sNDmJno_tP-63" target="M0cc5koYl3sNDmJno_tP-80">
          <mxGeometry relative="1" as="geometry" />
        </mxCell>
        <mxCell id="M0cc5koYl3sNDmJno_tP-63" value="Easy" style="rhombus;whiteSpace=wrap;html=1;" vertex="1" parent="1">
          <mxGeometry x="240" y="750" width="80" height="80" as="geometry" />
        </mxCell>
        <mxCell id="M0cc5koYl3sNDmJno_tP-85" style="edgeStyle=orthogonalEdgeStyle;rounded=0;orthogonalLoop=1;jettySize=auto;html=1;exitX=0.5;exitY=1;exitDx=0;exitDy=0;entryX=0.5;entryY=0;entryDx=0;entryDy=0;" edge="1" parent="1" source="M0cc5koYl3sNDmJno_tP-64" target="M0cc5koYl3sNDmJno_tP-81">
          <mxGeometry relative="1" as="geometry" />
        </mxCell>
        <mxCell id="M0cc5koYl3sNDmJno_tP-64" value="Medium" style="rhombus;whiteSpace=wrap;html=1;" vertex="1" parent="1">
          <mxGeometry x="363.94" y="750" width="80" height="80" as="geometry" />
        </mxCell>
        <mxCell id="M0cc5koYl3sNDmJno_tP-88" style="edgeStyle=orthogonalEdgeStyle;rounded=0;orthogonalLoop=1;jettySize=auto;html=1;exitX=0.5;exitY=1;exitDx=0;exitDy=0;entryX=0.5;entryY=0;entryDx=0;entryDy=0;" edge="1" parent="1" source="M0cc5koYl3sNDmJno_tP-65" target="M0cc5koYl3sNDmJno_tP-82">
          <mxGeometry relative="1" as="geometry" />
        </mxCell>
        <mxCell id="M0cc5koYl3sNDmJno_tP-65" value="Hard" style="rhombus;whiteSpace=wrap;html=1;" vertex="1" parent="1">
          <mxGeometry x="480" y="750" width="80" height="80" as="geometry" />
        </mxCell>
        <mxCell id="M0cc5koYl3sNDmJno_tP-89" style="edgeStyle=orthogonalEdgeStyle;rounded=0;orthogonalLoop=1;jettySize=auto;html=1;exitX=0.5;exitY=1;exitDx=0;exitDy=0;entryX=0.5;entryY=0;entryDx=0;entryDy=0;" edge="1" parent="1" source="M0cc5koYl3sNDmJno_tP-66" target="M0cc5koYl3sNDmJno_tP-83">
          <mxGeometry relative="1" as="geometry" />
        </mxCell>
        <mxCell id="M0cc5koYl3sNDmJno_tP-66" value="Asian" style="rhombus;whiteSpace=wrap;html=1;" vertex="1" parent="1">
          <mxGeometry x="610" y="750" width="80" height="80" as="geometry" />
        </mxCell>
        <mxCell id="M0cc5koYl3sNDmJno_tP-91" style="edgeStyle=orthogonalEdgeStyle;rounded=0;orthogonalLoop=1;jettySize=auto;html=1;exitX=0.5;exitY=0;exitDx=0;exitDy=0;entryX=0;entryY=0.75;entryDx=0;entryDy=0;" edge="1" parent="1" source="M0cc5koYl3sNDmJno_tP-68" target="M0cc5koYl3sNDmJno_tP-27">
          <mxGeometry relative="1" as="geometry">
            <Array as="points">
              <mxPoint x="200" y="520" />
              <mxPoint x="290" y="520" />
              <mxPoint x="290" y="435" />
            </Array>
          </mxGeometry>
        </mxCell>
        <mxCell id="M0cc5koYl3sNDmJno_tP-68" value="Return" style="rhombus;whiteSpace=wrap;html=1;" vertex="1" parent="1">
          <mxGeometry x="160" y="620" width="80" height="80" as="geometry" />
        </mxCell>
        <mxCell id="M0cc5koYl3sNDmJno_tP-98" style="edgeStyle=orthogonalEdgeStyle;rounded=0;orthogonalLoop=1;jettySize=auto;html=1;exitX=0.5;exitY=1;exitDx=0;exitDy=0;entryX=0.5;entryY=1;entryDx=0;entryDy=0;" edge="1" parent="1" source="M0cc5koYl3sNDmJno_tP-72" target="M0cc5koYl3sNDmJno_tP-68">
          <mxGeometry relative="1" as="geometry" />
        </mxCell>
        <mxCell id="M0cc5koYl3sNDmJno_tP-72" value="Easy leaderboard" style="rounded=1;whiteSpace=wrap;html=1;" vertex="1" parent="1">
          <mxGeometry x="-325" y="860" width="110" height="60" as="geometry" />
        </mxCell>
        <mxCell id="M0cc5koYl3sNDmJno_tP-99" style="edgeStyle=orthogonalEdgeStyle;rounded=0;orthogonalLoop=1;jettySize=auto;html=1;exitX=0.5;exitY=1;exitDx=0;exitDy=0;" edge="1" parent="1" source="M0cc5koYl3sNDmJno_tP-73">
          <mxGeometry relative="1" as="geometry">
            <mxPoint x="200" y="700" as="targetPoint" />
          </mxGeometry>
        </mxCell>
        <mxCell id="M0cc5koYl3sNDmJno_tP-73" value="Medium leaderboard" style="rounded=1;whiteSpace=wrap;html=1;" vertex="1" parent="1">
          <mxGeometry x="-210" y="860" width="110" height="60" as="geometry" />
        </mxCell>
        <mxCell id="M0cc5koYl3sNDmJno_tP-102" style="edgeStyle=orthogonalEdgeStyle;rounded=0;orthogonalLoop=1;jettySize=auto;html=1;exitX=0.5;exitY=1;exitDx=0;exitDy=0;entryX=0.5;entryY=1;entryDx=0;entryDy=0;" edge="1" parent="1" source="M0cc5koYl3sNDmJno_tP-74" target="M0cc5koYl3sNDmJno_tP-68">
          <mxGeometry relative="1" as="geometry" />
        </mxCell>
        <mxCell id="M0cc5koYl3sNDmJno_tP-74" value="Hard leaderboard" style="rounded=1;whiteSpace=wrap;html=1;" vertex="1" parent="1">
          <mxGeometry x="-85" y="860" width="110" height="60" as="geometry" />
        </mxCell>
        <mxCell id="M0cc5koYl3sNDmJno_tP-103" style="edgeStyle=orthogonalEdgeStyle;rounded=0;orthogonalLoop=1;jettySize=auto;html=1;exitX=0.5;exitY=1;exitDx=0;exitDy=0;" edge="1" parent="1" source="M0cc5koYl3sNDmJno_tP-75">
          <mxGeometry relative="1" as="geometry">
            <mxPoint x="200" y="700" as="targetPoint" />
          </mxGeometry>
        </mxCell>
        <mxCell id="M0cc5koYl3sNDmJno_tP-75" value="Asian leaderboard" style="rounded=1;whiteSpace=wrap;html=1;" vertex="1" parent="1">
          <mxGeometry x="34.94" y="860" width="110" height="60" as="geometry" />
        </mxCell>
        <mxCell id="M0cc5koYl3sNDmJno_tP-93" style="edgeStyle=orthogonalEdgeStyle;rounded=0;orthogonalLoop=1;jettySize=auto;html=1;exitX=0.5;exitY=1;exitDx=0;exitDy=0;entryX=0.5;entryY=0;entryDx=0;entryDy=0;" edge="1" parent="1" source="M0cc5koYl3sNDmJno_tP-80" target="M0cc5koYl3sNDmJno_tP-92">
          <mxGeometry relative="1" as="geometry" />
        </mxCell>
        <mxCell id="M0cc5koYl3sNDmJno_tP-80" value="Easy game mode" style="rounded=1;whiteSpace=wrap;html=1;" vertex="1" parent="1">
          <mxGeometry x="225" y="860" width="110" height="60" as="geometry" />
        </mxCell>
        <mxCell id="M0cc5koYl3sNDmJno_tP-94" style="edgeStyle=orthogonalEdgeStyle;rounded=0;orthogonalLoop=1;jettySize=auto;html=1;exitX=0.5;exitY=1;exitDx=0;exitDy=0;entryX=1;entryY=0.5;entryDx=0;entryDy=0;" edge="1" parent="1" source="M0cc5koYl3sNDmJno_tP-81" target="M0cc5koYl3sNDmJno_tP-92">
          <mxGeometry relative="1" as="geometry" />
        </mxCell>
        <mxCell id="M0cc5koYl3sNDmJno_tP-81" value="Medium game mode" style="rounded=1;whiteSpace=wrap;html=1;" vertex="1" parent="1">
          <mxGeometry x="348.94" y="860" width="110" height="60" as="geometry" />
        </mxCell>
        <mxCell id="M0cc5koYl3sNDmJno_tP-95" style="edgeStyle=orthogonalEdgeStyle;rounded=0;orthogonalLoop=1;jettySize=auto;html=1;exitX=0.5;exitY=1;exitDx=0;exitDy=0;entryX=1;entryY=0.5;entryDx=0;entryDy=0;" edge="1" parent="1" source="M0cc5koYl3sNDmJno_tP-82" target="M0cc5koYl3sNDmJno_tP-92">
          <mxGeometry relative="1" as="geometry" />
        </mxCell>
        <mxCell id="M0cc5koYl3sNDmJno_tP-82" value="Hard game mode" style="rounded=1;whiteSpace=wrap;html=1;" vertex="1" parent="1">
          <mxGeometry x="465" y="860" width="110" height="60" as="geometry" />
        </mxCell>
        <mxCell id="M0cc5koYl3sNDmJno_tP-96" style="edgeStyle=orthogonalEdgeStyle;rounded=0;orthogonalLoop=1;jettySize=auto;html=1;exitX=0.5;exitY=1;exitDx=0;exitDy=0;entryX=1;entryY=0.5;entryDx=0;entryDy=0;" edge="1" parent="1" source="M0cc5koYl3sNDmJno_tP-83" target="M0cc5koYl3sNDmJno_tP-92">
          <mxGeometry relative="1" as="geometry" />
        </mxCell>
        <mxCell id="M0cc5koYl3sNDmJno_tP-83" value="Asian game mode" style="rounded=1;whiteSpace=wrap;html=1;" vertex="1" parent="1">
          <mxGeometry x="595" y="860" width="110" height="60" as="geometry" />
        </mxCell>
        <mxCell id="M0cc5koYl3sNDmJno_tP-97" style="edgeStyle=orthogonalEdgeStyle;rounded=0;orthogonalLoop=1;jettySize=auto;html=1;exitX=0;exitY=0.5;exitDx=0;exitDy=0;entryX=0.5;entryY=1;entryDx=0;entryDy=0;" edge="1" parent="1" source="M0cc5koYl3sNDmJno_tP-92" target="M0cc5koYl3sNDmJno_tP-68">
          <mxGeometry relative="1" as="geometry">
            <Array as="points">
              <mxPoint x="200" y="1000" />
            </Array>
          </mxGeometry>
        </mxCell>
        <mxCell id="M0cc5koYl3sNDmJno_tP-92" value="Game finish check" style="rhombus;whiteSpace=wrap;html=1;" vertex="1" parent="1">
          <mxGeometry x="215" y="960" width="130" height="80" as="geometry" />
        </mxCell>
        <mxCell id="M0cc5koYl3sNDmJno_tP-105" value="True" style="text;html=1;strokeColor=none;fillColor=none;align=center;verticalAlign=middle;whiteSpace=wrap;rounded=0;" vertex="1" parent="1">
          <mxGeometry x="169.94" y="1010" width="60" height="30" as="geometry" />
        </mxCell>
      </root>
    </mxGraphModel>
  </diagram>
</mxfile>
